<svg xmlns="http://www.w3.org/2000/svg" xmlns:xlink="http://www.w3.org/1999/xlink" width="500" zoomAndPan="magnify" viewBox="0 0 375 374.999991" height="500" preserveAspectRatio="xMidYMid meet" version="1.0"><defs><clipPath id="709073c3f8"><path d="M 18.75 0 L 356.25 0 L 356.25 375 L 18.75 375 Z M 18.75 0 " clip-rule="nonzero"/></clipPath><clipPath id="ef10366724"><path d="M 77.917969 154.328125 L 283 154.328125 L 283 320.382812 L 77.917969 320.382812 Z M 77.917969 154.328125 " clip-rule="nonzero"/></clipPath></defs><g clip-path="url(#709073c3f8)"><path fill="#545454" d="M 272.4375 188.625 L 252.5625 168.75 L 161.0625 260.25 L 121.3125 220.5 L 101.4375 240.375 L 161.0625 300 Z M 318.75 37.5 L 300 37.5 L 300 0 L 262.5 0 L 262.5 37.5 L 112.5 37.5 L 112.5 0 L 75 0 L 75 37.5 L 56.25 37.5 C 35.53125 37.5 18.9375 54.28125 18.9375 75 L 18.75 337.5 C 18.75 358.21875 35.53125 375 56.25 375 L 318.75 375 C 339.46875 375 356.25 358.21875 356.25 337.5 L 356.25 75 C 356.25 54.28125 339.46875 37.5 318.75 37.5 Z M 318.75 337.5 L 56.25 337.5 L 56.25 131.25 L 318.75 131.25 Z M 318.75 337.5 " fill-opacity="1" fill-rule="nonzero"/></g><g clip-path="url(#ef10366724)"><path fill="#ffffff" d="M 77.917969 154.328125 L 282.539062 154.328125 L 282.539062 324.84375 L 77.917969 324.84375 Z M 77.917969 154.328125 " fill-opacity="1" fill-rule="nonzero"/></g></svg>