<svg xmlns="http://www.w3.org/2000/svg" xmlns:xlink="http://www.w3.org/1999/xlink" width="500" zoomAndPan="magnify" viewBox="0 0 375 374.999991" height="500" preserveAspectRatio="xMidYMid meet" version="1.0"><defs><clipPath id="eac939054d"><path d="M 9.898438 7.132812 L 375 7.132812 L 375 375 L 9.898438 375 Z M 9.898438 7.132812 " clip-rule="nonzero"/></clipPath></defs><g clip-path="url(#eac939054d)"><path fill="#2f5770" d="M 529.542969 338.6875 C 626.300781 338.6875 704.742188 417.15625 704.742188 513.953125 C 704.742188 610.75 626.304688 689.21875 529.542969 689.21875 C 432.785156 689.21875 354.34375 610.75 354.34375 513.953125 C 354.34375 417.15625 432.785156 338.6875 529.542969 338.6875 Z M 662.980469 666.195312 L 697.089844 699.640625 L 695.253906 701.53125 C 689.152344 707.820312 689.304688 717.960938 695.59375 724.0625 L 791.804688 817.457031 C 798.089844 823.558594 808.226562 823.410156 814.324219 817.121094 L 849.0625 781.308594 C 855.164062 775.019531 855.007812 764.882812 848.722656 758.777344 L 752.511719 665.382812 C 746.226562 659.277344 736.089844 659.429688 729.992188 665.71875 L 727.867188 667.910156 L 692.851562 633.578125 C 684.101562 645.511719 674.082031 656.449219 662.980469 666.195312 Z M 174.21875 12.515625 C 82.308594 19.46875 9.894531 96.273438 9.894531 190 C 9.894531 288.304688 89.558594 368 187.824219 368 C 215.425781 368 241.5625 361.714844 264.871094 350.492188 L 176.550781 197.621094 C 175.078125 195.445312 174.21875 192.824219 174.21875 190 Z M 586.191406 708.394531 L 586.191406 838.953125 C 586.191406 848.328125 578.550781 855.96875 569.179688 855.96875 C 550.347656 855.96875 531.511719 855.96875 512.679688 855.96875 C 503.3125 855.96875 495.671875 848.328125 495.671875 838.953125 L 495.671875 713.601562 C 506.6875 715.460938 518 716.441406 529.546875 716.441406 C 549.207031 716.441406 568.214844 713.628906 586.191406 708.394531 Z M 590.304688 91.515625 C 582.789062 91.515625 576.695312 85.421875 576.695312 77.902344 C 576.695312 70.386719 582.789062 64.289062 590.304688 64.289062 L 721.921875 64.289062 C 729.4375 64.289062 735.53125 70.386719 735.53125 77.902344 C 735.53125 85.421875 729.4375 91.515625 721.921875 91.515625 Z M 469.164062 288.480469 L 515.054688 288.480469 C 525.601562 288.480469 534.203125 297.085938 534.203125 307.632812 L 534.203125 311.519531 C 532.652344 311.488281 531.101562 311.460938 529.542969 311.460938 C 501.3125 311.460938 474.433594 317.25 450.019531 327.699219 L 450.019531 307.632812 C 450.019531 297.085938 458.621094 288.480469 469.164062 288.480469 Z M 641.839844 345.472656 C 653.683594 353.390625 664.640625 362.527344 674.546875 372.699219 L 721.921875 372.699219 C 729.4375 372.699219 735.53125 366.601562 735.53125 359.085938 C 735.53125 351.570312 729.4375 345.472656 721.921875 345.472656 Z M 590.304688 315.703125 C 582.789062 315.703125 576.695312 309.609375 576.695312 302.09375 C 576.695312 294.574219 582.789062 288.480469 590.304688 288.480469 L 853.542969 288.480469 C 861.054688 288.480469 867.148438 294.574219 867.148438 302.09375 C 867.148438 309.609375 861.054688 315.703125 853.542969 315.703125 Z M 469.164062 147.890625 L 515.054688 147.890625 C 525.601562 147.890625 534.203125 156.496094 534.203125 167.042969 L 534.203125 212.953125 C 534.203125 223.5 525.601562 232.105469 515.054688 232.105469 L 469.164062 232.105469 C 458.621094 232.105469 450.019531 223.5 450.019531 212.953125 L 450.019531 167.042969 C 450.019531 156.496094 458.621094 147.890625 469.164062 147.890625 Z M 590.304688 232.109375 C 582.789062 232.109375 576.695312 226.011719 576.695312 218.496094 C 576.695312 210.976562 582.789062 204.882812 590.304688 204.882812 L 721.921875 204.882812 C 729.4375 204.882812 735.53125 210.976562 735.53125 218.496094 C 735.53125 226.011719 729.4375 232.109375 721.921875 232.109375 Z M 590.304688 175.113281 C 582.789062 175.113281 576.695312 169.019531 576.695312 161.503906 C 576.695312 153.984375 582.789062 147.890625 590.304688 147.890625 L 853.542969 147.890625 C 861.054688 147.890625 867.148438 153.984375 867.148438 161.503906 C 867.148438 169.019531 861.054688 175.113281 853.542969 175.113281 Z M 469.164062 7.300781 L 515.054688 7.300781 C 525.601562 7.300781 534.203125 15.902344 534.203125 26.453125 L 534.203125 72.359375 C 534.203125 82.910156 525.601562 91.515625 515.054688 91.515625 L 469.164062 91.515625 C 458.621094 91.515625 450.019531 82.910156 450.019531 72.359375 L 450.019531 26.453125 C 450.019531 15.902344 458.621094 7.300781 469.164062 7.300781 Z M 590.304688 34.523438 C 582.789062 34.523438 576.695312 28.429688 576.695312 20.910156 C 576.695312 13.394531 582.789062 7.300781 590.304688 7.300781 L 853.542969 7.300781 C 861.054688 7.300781 867.148438 13.394531 867.148438 20.910156 C 867.148438 28.429688 861.054688 34.523438 853.542969 34.523438 Z M 421.90625 685.449219 C 386.800781 663.351562 358.953125 630.765625 342.761719 592.085938 C 336.148438 594.421875 331.386719 600.742188 331.386719 608.136719 C 331.386719 685.078125 331.386719 762.015625 331.386719 838.953125 C 331.386719 848.328125 339.027344 855.96875 348.394531 855.96875 C 367.230469 855.96875 386.066406 855.96875 404.898438 855.96875 C 414.265625 855.96875 421.90625 848.328125 421.90625 838.953125 Z M 184.113281 465.714844 C 202.949219 465.714844 221.78125 465.714844 240.617188 465.714844 C 249.984375 465.714844 257.625 473.355469 257.625 482.730469 C 257.625 601.46875 257.625 720.210938 257.625 838.953125 C 257.625 848.328125 249.984375 855.96875 240.617188 855.96875 C 221.78125 855.96875 202.949219 855.96875 184.113281 855.96875 C 174.746094 855.96875 167.105469 848.328125 167.105469 838.953125 C 167.105469 720.210938 167.105469 601.46875 167.105469 482.730469 C 167.105469 473.355469 174.746094 465.714844 184.113281 465.714844 Z M 26.90625 545.183594 C 45.742188 545.183594 64.574219 545.183594 83.410156 545.183594 C 92.777344 545.183594 100.417969 552.824219 100.417969 562.195312 C 100.417969 654.449219 100.417969 746.703125 100.417969 838.953125 C 100.417969 848.328125 92.777344 855.96875 83.410156 855.96875 C 64.574219 855.96875 45.742188 855.96875 26.90625 855.96875 C 17.539062 855.96875 9.898438 848.328125 9.898438 838.953125 C 9.898438 746.703125 9.898438 654.449219 9.898438 562.195312 C 9.898438 552.824219 17.539062 545.183594 26.90625 545.183594 Z M 288.359375 336.867188 L 211.371094 203.613281 L 365.238281 203.613281 C 361.054688 258.941406 331.585938 307.199219 288.359375 336.867188 Z M 365.238281 176.386719 L 201.433594 176.386719 L 201.433594 12.515625 C 288.851562 19.125 358.625 88.933594 365.238281 176.386719 Z M 529.542969 399.945312 C 498.074219 399.945312 469.582031 412.703125 448.960938 433.335938 C 428.339844 453.964844 415.585938 482.464844 415.585938 513.949219 C 415.585938 542.960938 426.417969 569.441406 444.257812 589.566406 C 455.324219 552.941406 489.328125 526.257812 529.546875 526.257812 C 569.773438 526.257812 603.769531 552.933594 614.832031 589.566406 C 632.671875 569.445312 643.503906 542.964844 643.503906 513.949219 C 643.503906 482.46875 630.75 453.964844 610.128906 433.335938 C 589.503906 412.703125 561.015625 399.945312 529.542969 399.945312 Z M 529.542969 429.402344 C 504.667969 429.402344 484.503906 449.578125 484.503906 474.460938 C 484.503906 499.347656 504.667969 519.519531 529.542969 519.519531 C 554.417969 519.519531 574.585938 499.347656 574.585938 474.460938 C 574.585938 449.578125 554.417969 429.402344 529.542969 429.402344 Z M 429.71875 414.085938 C 404.171875 439.644531 388.371094 474.949219 388.371094 513.949219 C 388.371094 552.945312 404.171875 588.253906 429.71875 613.8125 C 455.269531 639.367188 490.5625 655.175781 529.542969 655.175781 C 568.527344 655.175781 603.820312 639.367188 629.367188 613.8125 C 654.917969 588.253906 670.71875 552.945312 670.71875 513.949219 C 670.71875 474.949219 654.917969 439.644531 629.367188 414.085938 C 603.820312 388.53125 568.527344 372.71875 529.542969 372.71875 C 490.5625 372.71875 455.265625 388.53125 429.71875 414.085938 Z M 429.71875 414.085938 " fill-opacity="1" fill-rule="evenodd"/></g></svg>