<svg xmlns="http://www.w3.org/2000/svg" xmlns:xlink="http://www.w3.org/1999/xlink" width="500" zoomAndPan="magnify" viewBox="0 0 375 374.999991" height="500" preserveAspectRatio="xMidYMid meet" version="1.0"><defs><clipPath id="decc1f3c04"><path d="M 0 32 L 375 32 L 375 337.875 L 0 337.875 Z M 0 32 " clip-rule="nonzero"/></clipPath></defs><g clip-path="url(#decc1f3c04)"><path fill="#1d3b50" d="M 292.398438 102.273438 C 289.207031 102.273438 286.015625 103.492188 283.582031 105.929688 C 278.710938 110.804688 278.710938 118.710938 283.578125 123.585938 L 332.386719 172.453125 L 88.359375 173.199219 C 81.472656 173.21875 75.90625 178.828125 75.925781 185.722656 C 75.949219 192.601562 81.527344 198.167969 88.394531 198.167969 C 88.40625 198.167969 88.421875 198.167969 88.433594 198.167969 L 332.207031 197.421875 L 283.582031 246.105469 C 278.710938 250.980469 278.710938 258.886719 283.578125 263.761719 C 286.015625 266.199219 289.207031 267.417969 292.398438 267.417969 C 295.589844 267.417969 298.777344 266.199219 301.214844 263.761719 L 370.890625 194.003906 L 370.875 194.003906 C 373.332031 191.722656 374.867188 188.460938 374.867188 184.84375 C 374.867188 181.402344 373.476562 178.28125 371.222656 176.023438 L 371.210938 176.023438 L 371.214844 176.019531 L 301.214844 105.929688 C 298.78125 103.492188 295.589844 102.273438 292.398438 102.273438 Z M 222.394531 32.183594 L 12.386719 32.1875 C 5.5 32.1875 -0.0820312 37.777344 -0.0820312 44.671875 L -0.0820312 325.023438 C -0.0820312 331.917969 5.5 337.507812 12.386719 337.507812 L 222.394531 337.507812 C 225.703125 337.507812 228.875 336.191406 231.210938 333.851562 C 233.550781 331.511719 234.863281 328.335938 234.863281 325.023438 L 234.863281 254.933594 C 234.863281 248.039062 229.28125 242.449219 222.394531 242.449219 C 215.507812 242.449219 209.925781 248.039062 209.925781 254.933594 L 209.925781 312.539062 L 24.855469 312.539062 L 24.855469 57.15625 L 209.925781 57.152344 L 209.925781 114.757812 C 209.925781 121.652344 215.507812 127.242188 222.394531 127.242188 C 229.28125 127.242188 234.863281 121.652344 234.863281 114.757812 L 234.863281 44.667969 C 234.863281 41.359375 233.550781 38.183594 231.210938 35.839844 C 228.875 33.5 225.703125 32.183594 222.394531 32.183594 Z M 222.394531 32.183594 " fill-opacity="1" fill-rule="nonzero"/></g></svg>