<svg xmlns="http://www.w3.org/2000/svg" xmlns:xlink="http://www.w3.org/1999/xlink" width="500" zoomAndPan="magnify" viewBox="0 0 375 374.999991" height="500" preserveAspectRatio="xMidYMid meet" version="1.0"><defs><clipPath id="9be7b46a0b"><path d="M 1 0 L 369.75 0 L 369.75 375 L 1 375 Z M 1 0 " clip-rule="nonzero"/></clipPath></defs><g clip-path="url(#9be7b46a0b)"><path fill="#1d3b50" d="M 369.109375 6.707031 C 369.109375 2.957031 366.148438 0 362.394531 0 L 121.882812 0 C 118.132812 0 115.167969 2.957031 115.167969 6.707031 L 115.167969 21.5 L 5.972656 57.007812 C 2.417969 58.191406 0.640625 61.941406 1.628906 65.492188 L 101.347656 370.265625 C 101.941406 372.039062 103.125 373.421875 104.703125 374.210938 C 105.691406 374.605469 106.679688 375 107.667969 375 C 108.457031 375 109.046875 374.800781 109.839844 374.605469 L 224.171875 337.125 C 225.75 336.535156 227.132812 335.351562 227.921875 333.96875 L 308.882812 333.96875 C 309.476562 333.96875 310.066406 333.773438 310.660156 333.574219 C 310.859375 333.574219 311.054688 333.574219 311.449219 333.378906 C 312.238281 332.984375 313.03125 332.589844 313.621094 331.996094 C 313.621094 331.996094 313.621094 331.996094 313.621094 331.800781 L 366.9375 278.539062 C 367.53125 277.945312 368.121094 277.15625 368.320312 276.367188 C 368.714844 275.578125 368.914062 274.59375 368.914062 273.804688 L 368.914062 6.707031 Z M 315.792969 280.511719 L 346.402344 280.511719 L 315.792969 311.085938 Z M 128.398438 13.414062 L 355.683594 13.414062 L 355.683594 267.292969 L 308.882812 267.292969 C 307.105469 267.292969 305.328125 268.082031 304.144531 269.265625 C 302.957031 270.449219 302.167969 272.226562 302.167969 274 L 302.167969 320.753906 L 128.398438 320.753906 Z M 112.207031 359.613281 L 16.636719 67.660156 L 115.167969 35.507812 L 115.167969 327.460938 C 115.167969 331.207031 118.132812 334.167969 121.882812 334.167969 L 190.996094 334.167969 Z M 112.207031 359.613281 " fill-opacity="1" fill-rule="nonzero"/></g><path fill="#1d3b50" d="M 161.96875 73.382812 L 322.507812 73.382812 C 326.261719 73.382812 329.222656 70.421875 329.222656 66.675781 C 329.222656 62.925781 326.261719 59.96875 322.507812 59.96875 L 161.96875 59.96875 C 158.21875 59.96875 155.253906 62.925781 155.253906 66.675781 C 155.253906 70.421875 158.21875 73.382812 161.96875 73.382812 Z M 161.96875 73.382812 " fill-opacity="1" fill-rule="nonzero"/><path fill="#1d3b50" d="M 161.96875 113.625 L 322.507812 113.625 C 326.261719 113.625 329.222656 110.664062 329.222656 106.917969 C 329.222656 103.167969 326.261719 100.210938 322.507812 100.210938 L 161.96875 100.210938 C 158.21875 100.210938 155.253906 103.167969 155.253906 106.917969 C 155.253906 110.664062 158.21875 113.625 161.96875 113.625 Z M 161.96875 113.625 " fill-opacity="1" fill-rule="nonzero"/><path fill="#1d3b50" d="M 161.96875 233.757812 L 322.507812 233.757812 C 326.261719 233.757812 329.222656 230.800781 329.222656 227.050781 C 329.222656 223.304688 326.261719 220.34375 322.507812 220.34375 L 161.96875 220.34375 C 158.21875 220.34375 155.253906 223.304688 155.253906 227.050781 C 155.253906 230.800781 158.21875 233.757812 161.96875 233.757812 Z M 161.96875 233.757812 " fill-opacity="1" fill-rule="nonzero"/><path fill="#1d3b50" d="M 161.96875 153.667969 L 322.507812 153.667969 C 326.261719 153.667969 329.222656 150.710938 329.222656 146.960938 C 329.222656 143.214844 326.261719 140.253906 322.507812 140.253906 L 161.96875 140.253906 C 158.21875 140.253906 155.253906 143.214844 155.253906 146.960938 C 155.253906 150.710938 158.21875 153.667969 161.96875 153.667969 Z M 161.96875 153.667969 " fill-opacity="1" fill-rule="nonzero"/><path fill="#1d3b50" d="M 288.9375 260.585938 L 161.96875 260.585938 C 158.21875 260.585938 155.253906 263.546875 155.253906 267.292969 C 155.253906 271.042969 158.21875 274 161.96875 274 L 288.9375 274 C 292.691406 274 295.652344 271.042969 295.652344 267.292969 C 295.652344 263.546875 292.691406 260.585938 288.9375 260.585938 Z M 288.9375 260.585938 " fill-opacity="1" fill-rule="nonzero"/><path fill="#1d3b50" d="M 161.96875 193.714844 L 322.507812 193.714844 C 326.261719 193.714844 329.222656 190.753906 329.222656 187.007812 C 329.222656 183.257812 326.261719 180.300781 322.507812 180.300781 L 161.96875 180.300781 C 158.21875 180.300781 155.253906 183.257812 155.253906 187.007812 C 155.253906 190.753906 158.21875 193.714844 161.96875 193.714844 Z M 161.96875 193.714844 " fill-opacity="1" fill-rule="nonzero"/></svg>