<svg xmlns="http://www.w3.org/2000/svg" xmlns:xlink="http://www.w3.org/1999/xlink" width="192" zoomAndPan="magnify" viewBox="0 0 144 374.999991" height="500" preserveAspectRatio="xMidYMid meet" version="1.0"><defs><clipPath id="2391699f75"><path d="M 0 0 L 144 0 L 144 374.25 L 0 374.25 Z M 0 0 " clip-rule="nonzero"/></clipPath><clipPath id="0623ace006"><path d="M 129.601562 0 L 144 0 L 144 43.199219 L 129.601562 43.199219 Z M 129.601562 0 " clip-rule="nonzero"/></clipPath></defs><g clip-path="url(#2391699f75)"><path fill="#545454" d="M 115.632812 246.664062 L 115.632812 44.273438 C 115.632812 19.878906 95.804688 0.046875 71.417969 0.046875 C 47.03125 0.046875 27.207031 19.878906 27.207031 44.273438 L 27.207031 246.664062 C 10.074219 260.058594 0 280.636719 0 302.761719 C 0 342.148438 32.042969 374.203125 71.417969 374.203125 C 110.792969 374.203125 142.835938 342.148438 142.835938 302.761719 C 142.835938 280.636719 132.761719 260.058594 115.632812 246.664062 Z M 71.417969 353.796875 C 43.289062 353.796875 20.421875 330.898438 20.421875 302.789062 C 20.421875 285.628906 28.875 269.789062 43.039062 260.410156 C 45.910156 258.511719 47.628906 255.320312 47.628906 251.902344 L 47.628906 44.273438 C 47.628906 31.152344 58.300781 20.453125 71.445312 20.453125 C 84.585938 20.453125 95.257812 31.128906 95.257812 44.273438 L 95.257812 251.902344 C 95.257812 255.320312 96.980469 258.511719 99.847656 260.410156 C 114.011719 269.789062 122.464844 285.601562 122.464844 302.789062 C 122.4375 330.898438 99.546875 353.796875 71.417969 353.796875 Z M 102.015625 302.761719 C 102.015625 319.625 88.277344 333.367188 71.417969 333.367188 C 54.535156 333.367188 40.820312 319.625 40.820312 302.761719 C 40.820312 289.492188 49.375 278.269531 61.21875 274.027344 L 61.21875 51.058594 C 61.21875 45.421875 65.78125 40.855469 71.417969 40.855469 C 77.054688 40.855469 81.617188 45.421875 81.617188 51.058594 L 81.617188 274.027344 C 93.460938 278.269531 102.015625 289.492188 102.015625 302.761719 Z M 242.210938 87.972656 C 245.976562 92.164062 245.652344 98.601562 241.460938 102.367188 C 233.554688 109.527344 223.308594 113.441406 212.636719 113.441406 C 188.871094 113.441406 169.542969 94.109375 169.542969 70.339844 C 169.542969 46.566406 188.871094 27.238281 212.636719 27.238281 C 223.308594 27.238281 233.53125 31.179688 241.460938 38.3125 C 245.652344 42.078125 246 48.539062 242.210938 52.730469 C 238.417969 56.917969 231.984375 57.269531 227.796875 53.476562 C 223.632812 49.710938 218.21875 47.640625 212.609375 47.640625 C 200.089844 47.640625 189.917969 57.816406 189.917969 70.339844 C 189.917969 82.859375 200.089844 93.039062 212.609375 93.039062 C 218.246094 93.039062 223.632812 90.96875 227.796875 87.226562 C 231.960938 83.460938 238.445312 83.757812 242.210938 87.972656 Z M 153.035156 5.160156 C 142.738281 5.160156 134.332031 13.566406 134.332031 23.871094 C 134.332031 34.171875 142.738281 42.578125 153.035156 42.578125 C 163.335938 42.578125 171.738281 34.171875 171.738281 23.871094 C 171.738281 13.566406 163.335938 5.160156 153.035156 5.160156 Z M 153.035156 32.351562 C 148.347656 32.351562 144.53125 28.535156 144.53125 23.84375 C 144.53125 19.15625 148.347656 15.339844 153.035156 15.339844 C 157.722656 15.339844 161.539062 19.15625 161.539062 23.84375 C 161.539062 28.535156 157.722656 32.351562 153.035156 32.351562 Z M 153.035156 32.351562 " fill-opacity="1" fill-rule="nonzero"/></g><g clip-path="url(#0623ace006)"><path fill="#ffffff" d="M 129.601562 0 L 175.5 0 L 175.5 43.199219 L 129.601562 43.199219 Z M 129.601562 0 " fill-opacity="1" fill-rule="nonzero"/></g></svg>