<svg xmlns="http://www.w3.org/2000/svg" xmlns:xlink="http://www.w3.org/1999/xlink" width="500" zoomAndPan="magnify" viewBox="0 0 375 374.999991" height="500" preserveAspectRatio="xMidYMid meet" version="1.0"><path fill="#545454" d="M 198.113281 287.355469 L 198.113281 87.65625 L 248.460938 37.355469 C 248.460938 37.355469 255.832031 29.988281 248.460938 22.613281 C 241.085938 15.25 233.714844 22.613281 233.714844 22.613281 L 198.113281 58.1875 L 198.113281 10.417969 C 198.113281 10.417969 198.113281 0 187.6875 0 C 177.261719 0 177.261719 10.417969 177.261719 10.417969 L 177.261719 58.1875 L 141.660156 22.613281 C 141.660156 22.613281 134.289062 15.25 126.914062 22.613281 C 119.542969 29.988281 126.914062 37.355469 126.914062 37.355469 L 177.261719 87.65625 L 177.261719 287.355469 L 126.914062 337.644531 C 126.914062 337.644531 119.542969 345.011719 126.914062 352.375 C 134.289062 359.738281 141.660156 352.375 141.660156 352.375 L 177.261719 316.8125 L 177.261719 364.582031 C 177.261719 364.582031 177.261719 375 187.6875 375 C 198.113281 375 198.113281 364.582031 198.113281 364.582031 L 198.113281 316.8125 L 233.714844 352.375 C 233.714844 352.375 241.085938 359.738281 248.460938 352.375 C 255.832031 345.011719 248.460938 337.644531 248.460938 337.644531 Z M 198.113281 287.355469 " fill-opacity="1" fill-rule="nonzero"/><path fill="#545454" d="M 361.015625 217.355469 C 358.316406 207.292969 348.242188 209.988281 348.242188 209.988281 L 279.472656 228.394531 L 106.339844 128.542969 L 87.914062 59.84375 C 87.914062 59.84375 85.214844 49.78125 75.140625 52.480469 C 65.058594 55.175781 67.769531 65.238281 67.769531 65.238281 L 80.804688 113.824219 L 39.386719 89.925781 C 39.386719 89.925781 30.355469 84.71875 25.140625 93.738281 C 19.925781 102.761719 28.957031 107.96875 28.957031 107.96875 L 70.367188 131.855469 L 21.730469 144.863281 C 21.730469 144.863281 11.648438 147.5625 14.359375 157.625 C 17.058594 167.699219 27.132812 165 27.132812 165 L 95.914062 146.59375 L 269.042969 246.449219 L 287.46875 315.15625 C 287.46875 315.15625 290.171875 325.21875 300.242188 322.519531 C 310.316406 319.8125 307.617188 309.761719 307.617188 309.761719 L 294.582031 261.175781 L 336 285.0625 C 336 285.0625 345.042969 290.269531 350.253906 281.261719 C 355.46875 272.230469 346.429688 267.019531 346.429688 267.019531 L 305.019531 243.136719 L 353.644531 230.125 C 353.644531 230.113281 363.71875 227.417969 361.015625 217.355469 Z M 361.015625 217.355469 " fill-opacity="1" fill-rule="nonzero"/><path fill="#545454" d="M 353.644531 144.863281 L 305.007812 131.84375 L 346.429688 107.957031 C 346.429688 107.957031 355.46875 102.738281 350.253906 93.71875 C 345.03125 84.6875 336 89.90625 336 89.90625 L 294.59375 113.78125 L 307.617188 65.207031 C 307.617188 65.207031 310.316406 55.144531 300.242188 52.449219 C 290.171875 49.75 287.46875 59.8125 287.46875 59.8125 L 269.042969 128.511719 L 95.902344 228.394531 L 27.144531 209.980469 C 27.144531 209.980469 17.070312 207.28125 14.367188 217.34375 C 11.65625 227.417969 21.742188 230.105469 21.742188 230.105469 L 70.367188 243.113281 L 28.957031 267 C 28.957031 267 19.9375 272.21875 25.152344 281.238281 C 30.363281 290.25 39.386719 285.042969 39.386719 285.042969 L 80.804688 261.15625 L 67.769531 309.730469 C 67.769531 309.730469 65.066406 319.800781 75.140625 322.488281 C 85.226562 325.199219 87.925781 315.136719 87.925781 315.136719 L 106.363281 246.417969 L 279.503906 146.574219 L 348.273438 164.988281 C 348.273438 164.988281 358.347656 167.6875 361.046875 157.625 C 363.707031 147.550781 353.644531 144.863281 353.644531 144.863281 Z M 353.644531 144.863281 " fill-opacity="1" fill-rule="nonzero"/></svg>