<svg xmlns="http://www.w3.org/2000/svg" xmlns:xlink="http://www.w3.org/1999/xlink" width="500" zoomAndPan="magnify" viewBox="0 0 375 374.999991" height="500" preserveAspectRatio="xMidYMid meet" version="1.0"><defs><clipPath id="182ea34628"><path d="M 187.5 0 C 83.945312 0 0 83.945312 0 187.5 C 0 291.054688 83.945312 375 187.5 375 C 291.054688 375 375 291.054688 375 187.5 C 375 83.945312 291.054688 0 187.5 0 " clip-rule="nonzero"/></clipPath><clipPath id="cce44f03b2"><path d="M 158 264 L 209 264 L 209 283.371094 L 158 283.371094 Z M 158 264 " clip-rule="nonzero"/></clipPath><clipPath id="335e2bcc1d"><path d="M 86.839844 77.417969 L 279.917969 77.417969 L 279.917969 256 L 86.839844 256 Z M 86.839844 77.417969 " clip-rule="nonzero"/></clipPath><clipPath id="b655ca2515"><path d="M 211.785156 73.640625 L 295.882812 73.640625 L 295.882812 157.734375 L 211.785156 157.734375 Z M 211.785156 73.640625 " clip-rule="nonzero"/></clipPath><clipPath id="6ad62d02d4"><path d="M 253.832031 73.640625 C 230.613281 73.640625 211.785156 92.464844 211.785156 115.6875 C 211.785156 138.910156 230.613281 157.734375 253.832031 157.734375 C 277.054688 157.734375 295.882812 138.910156 295.882812 115.6875 C 295.882812 92.464844 277.054688 73.640625 253.832031 73.640625 " clip-rule="nonzero"/></clipPath></defs><g clip-path="url(#182ea34628)"><rect x="-37.5" width="450" fill="#ffffff" y="-37.499999" height="449.999989" fill-opacity="1"/></g><g clip-path="url(#cce44f03b2)"><path fill="#1d3b50" d="M 207.648438 265.40625 C 207.175781 264.742188 206.230469 264.28125 205.628906 264.367188 L 161.261719 264.617188 C 161.261719 264.617188 159.671875 265.03125 159.242188 265.699219 C 158.808594 266.367188 158.722656 267.199219 159.070312 267.90625 C 163.28125 277.285156 172.867188 283.328125 183.402344 283.328125 C 194.105469 283.328125 203.695312 277.160156 207.863281 267.617188 C 208.164062 266.867188 208.078125 266.03125 207.648438 265.40625 Z M 207.648438 265.40625 " fill-opacity="1" fill-rule="nonzero"/></g><g clip-path="url(#335e2bcc1d)"><path fill="#1d3b50" d="M 278.199219 242.320312 L 250.984375 220.316406 L 250.984375 161.683594 C 250.984375 131.96875 230.433594 106.839844 202.40625 98.839844 C 202.535156 97.964844 202.707031 97.089844 202.707031 96.171875 C 202.707031 85.835938 194.0625 77.460938 183.402344 77.460938 C 172.738281 77.460938 164.097656 85.835938 164.097656 96.171875 C 164.097656 97.089844 164.269531 97.964844 164.398438 98.839844 C 136.367188 106.839844 115.816406 131.929688 115.816406 161.683594 L 115.816406 220.316406 L 88.5625 242.320312 C 87.441406 243.195312 86.839844 244.53125 86.839844 245.90625 L 86.839844 250.570312 C 86.839844 253.15625 88.992188 255.238281 91.65625 255.238281 L 275.105469 255.238281 C 277.769531 255.238281 279.917969 253.15625 279.917969 250.570312 L 279.917969 245.90625 C 279.917969 244.53125 279.273438 243.195312 278.199219 242.320312 Z M 173.816406 96.921875 C 173.816406 96.671875 173.730469 96.421875 173.730469 96.171875 C 173.730469 91.003906 178.070312 86.796875 183.402344 86.796875 C 188.734375 86.796875 193.03125 91.003906 193.03125 96.171875 C 193.03125 96.421875 192.988281 96.671875 192.945312 96.921875 C 189.808594 96.507812 186.625 96.171875 183.359375 96.171875 C 180.089844 96.171875 176.953125 96.464844 173.816406 96.921875 Z M 173.816406 96.921875 " fill-opacity="1" fill-rule="nonzero"/></g><g clip-path="url(#b655ca2515)"><g clip-path="url(#6ad62d02d4)"><path fill="#c4d7df" d="M 211.785156 73.640625 L 295.882812 73.640625 L 295.882812 157.734375 L 211.785156 157.734375 Z M 211.785156 73.640625 " fill-opacity="1" fill-rule="nonzero"/></g></g></svg>